<svg xmlns="http://www.w3.org/2000/svg"><style>:root svg:not(:target){display:none}</style><svg fill="currentColor" class="bi bi-clipboard" viewBox="0 0 16 16" id="clipboard-button"><path d="M4 1.5h-1a2 2 0 0 0-2 2v10.5a2 2 0 0 0 2 2h10a2 2 0 0 0 2-2v-10.5a2 2 0 0 0-2-2h-1v1h1a1 1 0 0 1 1 1v10.5a1 1 0 0 1-1 1h-10a1 1 0 0 1-1-1v-10.5a1 1 0 0 1 1-1h1v-1z"></path><path d="M9.5 1a.5.5 0 0 1 .5.5v1a.5.5 0 0 1-.5.5h-3a.5.5 0 0 1-.5-.5v-1a.5.5 0 0 1 .5-.5h3zm-3-1a1.5 1.5 0 0 0-1.5 1.5v1a1.5 1.5 0 0 0 1.5 1.5h3a1.5 1.5 0 0 0 1.5-1.5v-1a1.5 1.5 0 0 0-1.5-1.5h-3z"></path></svg><svg viewBox="0 0 30 30" id="close-button"><path d="M7 4a1 1 0 0 0-.7.3l-2 2a1 1 0 0 0 0 1.4l7.29 7.3-7.3 7.3a1 1 0 0 0 0 1.4l2 2a1 1 0 0 0 1.42 0l7.29-7.29 7.3 7.3a1 1 0 0 0 1.4 0l2-2a1 1 0 0 0 0-1.42l-7.29-7.29 7.3-7.3a1 1 0 0 0 0-1.4l-2-2a1 1 0 0 0-1.42 0l-7.29 7.29-7.3-7.3a1 1 0 0 0-.7-.29z"></path></svg><svg viewBox="0 0 30 30" id="refresh-button"><path d="M15 3c-2.97 0-5.7 1.08-7.8 2.88a1 1 0 1 0 1.3 1.51 9.99 9.99 0 0 1 16.45 6.6l-2.95.01 4 6 4-6h-3.05a12 12 0 0 0-11.95-11zm-11 7-4 6h3.05a12.01 12.01 0 0 0 19.74 8.13 1 1 0 1 0-1.3-1.52 9.99 9.99 0 0 1-16.45-6.6l2.96-.01-4-6z"></path></svg></svg>